<svg width="223" height="46" viewBox="0 0 223 46" fill="none" xmlns="http://www.w3.org/2000/svg">
<path d="M42.7413 9.19315H30.5799V46H21.4218V9.19315H9.16942V46H0V6.13257C0 2.04419 2.03638 0 6.10915 0H45.8243C49.8971 0 51.9335 2.04419 51.9335 6.13257V46H42.7754L42.7413 9.19315ZM88.5997 12.2651C92.6725 12.2651 94.7089 14.3093 94.7089 18.3977V27.6023C94.7089 31.6907 92.6725 33.7349 88.5997 33.7349H70.2723V24.5303H85.5509V21.4697H67.212V36.7954H88.5656L85.5736 46H64.1631C60.0904 46 58.054 43.9558 58.054 39.8674V18.3977C58.054 14.3093 60.0904 12.2651 64.1631 12.2651H88.5997ZM137.484 39.8674C137.484 43.9558 135.448 46 131.375 46H106.927C102.854 46 100.818 43.9558 100.818 39.8674V18.3977C100.818 14.3093 102.854 12.2651 106.927 12.2651H125.266L122.206 21.4697H109.987V36.7954H128.315V0H137.484V39.8674ZM143.593 6.13257H152.763V12.2651H158.872L155.812 21.4355H152.763V36.7954H158.872V46H149.703C145.63 46 143.593 43.9558 143.593 39.8674V6.13257ZM174.151 46H164.915L164.437 12.2188C167.54 12.2188 167.018 12.2651 171.09 12.2651L186.335 12.2188V21.4697H174.151V46ZM164.437 0H174.194L171.09 9.10417H164.437V0ZM223 12.2651V21.4697H217.494L210.623 29.1326L217.494 36.7954H223V46H213.831L204.661 35.7905L195.504 46H186.335V36.7954H191.829L198.711 29.1326L191.829 21.4697H186.335V12.2651H195.504L204.661 22.4747L213.831 12.2651H223Z" fill="#0C0B19"/>
</svg>
